<?xml version="1.0" encoding="UTF-8" standalone="no"?>
<!-- Created with Inkscape (http://www.inkscape.org/) -->

<svg
   width="190.23759mm"
   height="171.60796mm"
   viewBox="0 0 190.23759 171.60796"
   version="1.1"
   id="svg5"
   xml:space="preserve"
   xmlns="http://www.w3.org/2000/svg"
   xmlns:svg="http://www.w3.org/2000/svg"><defs
     id="defs2" /><g
     id="layer1"
     transform="translate(-10.031372,-62.696024)"><g
       id="layer2"><ellipse
         style="fill:#ffffff;stroke-width:0.21176"
         id="path235"
         cx="105.15018"
         cy="148.5"
         rx="95.118805"
         ry="85.803978" /></g><path
       style="fill:#000000;stroke-width:0.200526"
       d="m 98.487855,220.11701 c -3.50659,-0.32382 -5.79424,-0.60295 -8.03635,-0.98056 -7.67,-1.29178 -17.046935,-4.34206 -19.253755,-6.26315 -0.573733,-0.49947 -0.988466,-0.96106 -0.921597,-1.02578 0.06682,-0.0647 1.17957,0.35667 2.472722,0.9364 5.889422,2.64035 13.15801,4.66025 20.87488,5.80102 3.10131,0.45846 3.02732,0.4527 8.367115,0.65029 2.48087,0.0918 5.08246,0.0694 6.79998,-0.0588 2.63331,-0.19631 2.8032,-0.18727 3.18248,0.16923 0.22037,0.20712 0.34776,0.42672 0.28308,0.48796 -0.42555,0.403 -10.27726,0.6057 -13.768555,0.28327 z m 13.838045,-0.68485 -0.54221,-0.44168 1.02782,-0.13128 c 2.32227,-0.2968 6.98533,-1.09613 8.93723,-1.53202 1.14646,-0.25601 2.08449,-0.42972 2.08449,-0.386 0,0.0438 -0.13286,0.32276 -0.29514,0.62004 -0.26201,0.47981 -0.5224,0.5871 -2.31818,0.95513 -3.0148,0.61784 -4.08375,0.80279 -6.32074,1.09355 -2.00678,0.26084 -2.03755,0.25872 -2.57327,-0.17767 z m -41.794936,-6.44171 c -0.759745,-0.31515 -0.994073,-0.58956 -0.666957,-0.78101 0.127257,-0.0745 0.521039,0.13895 0.875164,0.47437 0.718125,0.68009 0.712394,0.68853 -0.208207,0.30664 z m -3.570314,-1.76677 c -2.420525,-1.21748 -6.672079,-3.81277 -9.16966,-5.59746 -1.792229,-1.2807 -6.701862,-5.25044 -7.503569,-6.06708 -0.486334,-0.49541 -0.488952,-0.5158 -0.115731,-0.90629 0.380496,-0.39817 0.386088,-0.39541 1.733881,0.84749 4.158423,3.83483 10.285539,8.08537 15.489375,10.74535 1.865686,0.95367 2.580758,1.51972 2.355604,1.86471 -0.225279,0.34522 -0.53836,0.2457 -2.789837,-0.88672 z M 47.183537,196.47813 c -2.84694,-2.95141 -6.67047,-7.72757 -8.487315,-10.60193 -2.393853,-3.78722 -3.29504,-5.39553 -3.180986,-5.67701 0.208416,-0.51435 0.757065,-0.2768 1.280823,0.55455 0.287376,0.45615 1.255939,2.00204 2.152364,3.43533 2.83994,4.54075 6.633881,9.28769 10.043386,12.56616 l 1.369755,1.3171 -0.428595,0.4059 -0.428594,0.40589 z m 24.878707,-11.08508 c -0.28467,-0.21205 -0.563235,-0.55087 -0.619029,-0.75288 -0.146572,-0.53075 0.356773,-1.53533 0.842377,-1.68129 0.389311,-0.11697 0.397146,-0.16758 0.122584,-0.78984 -0.52917,-1.1994 0.297007,-2.21434 1.58452,-1.94653 0.645088,0.13424 0.936643,0.50276 0.693001,0.8761 -0.09766,0.14969 -0.261073,0.1149 -0.525728,-0.11196 -0.421445,-0.36117 -0.95817,-0.26502 -1.148963,0.20586 -0.07118,0.17552 0.229313,0.80774 0.719574,1.51423 l 0.841676,1.2129 0.232521,-0.63167 c 0.150154,-0.40787 0.368797,-0.63166 0.617159,-0.63166 0.371991,0 0.371197,0.0298 -0.02429,0.9034 l -0.408907,0.90338 0.529748,0.65774 0.529761,0.65775 h -0.503594 c -0.276976,0 -0.558219,-0.13483 -0.624963,-0.29954 -0.109034,-0.2693 -0.183145,-0.2693 -0.733032,0 -0.825492,0.40425 -1.503087,0.37682 -2.124438,-0.086 z m 1.804316,-0.47043 c 0.377972,-0.26173 0.372147,-0.29368 -0.178051,-0.9768 -0.464032,-0.57614 -0.638142,-0.67108 -0.945304,-0.51542 -0.501414,0.25415 -0.675649,0.73383 -0.426602,1.17451 0.341618,0.6045 0.954417,0.7301 1.549957,0.31771 z m 12.961425,0.58883 c -1.04937,-0.44951 -1.52798,-1.19711 -1.52798,-2.38675 0,-0.88322 0.0956,-1.14335 0.63392,-1.72392 0.39082,-0.42152 0.89932,-0.73089 1.32597,-0.80668 0.88931,-0.158 2.18051,0.2267 2.0276,0.60408 -0.083,0.20476 -0.34137,0.24496 -1.01368,0.15768 -1.14781,-0.14898 -1.84647,0.25358 -2.13044,1.22754 -0.15514,0.53194 -0.13613,0.87285 0.0754,1.35212 0.37258,0.84447 0.9864,1.13577 2.09106,0.99239 0.89931,-0.11668 1.35083,0.11668 0.95356,0.49285 -0.344,0.32576 -1.76323,0.37862 -2.43537,0.0907 z m 7.44637,-2.29413 c 0.61742,-1.40873 1.12259,-2.61177 1.12259,-2.67345 0,-0.48728 0.74428,1.05181 2.41345,4.99083 0.0629,0.14865 -0.0651,0.24394 -0.32803,0.24394 -0.29825,0 -0.5244,-0.21081 -0.73274,-0.68302 -0.28566,-0.64745 -0.35334,-0.68298 -1.30076,-0.68298 -0.95515,0 -1.01098,0.0302 -1.26021,0.68298 -0.17235,0.45137 -0.39241,0.68302 -0.64886,0.68302 -0.34272,0 -0.25691,-0.29921 0.73456,-2.56132 z m 1.70193,-0.0244 c -0.34769,-0.98677 -0.52537,-1.03672 -0.87434,-0.24578 -0.17774,0.40288 -0.32317,0.76568 -0.32317,0.80625 0,0.0406 0.31972,0.0738 0.71049,0.0738 0.71004,0 0.71035,-3.9e-4 0.48702,-0.63421 z m 6.014585,-0.0937 v -2.67934 l 1.95758,1.84614 1.95757,1.84613 v -1.8012 c 0,-1.6711 0.0297,-1.8012 0.41211,-1.8012 0.39177,0 0.41211,0.1301 0.41211,2.6344 0,1.44892 -0.0717,2.63441 -0.15908,2.63441 -0.0876,0 -0.94318,-0.74642 -1.90151,-1.6587 -0.95832,-0.9123 -1.814,-1.6587 -1.90151,-1.6587 -0.0875,0 -0.1591,0.7464 -0.1591,1.6587 0,1.3443 -0.0586,1.6587 -0.30909,1.6587 -0.25973,0 -0.30908,-0.4278 -0.30908,-2.67934 z m 10.09694,0.43521 v -2.24412 h -0.61818 c -0.4808,0 -0.61817,-0.0867 -0.61817,-0.39029 0,-0.35967 0.13738,-0.39027 1.75151,-0.39027 1.61413,0 1.75151,0.0305 1.75151,0.39027 0,0.31595 -0.13738,0.39029 -0.7212,0.39029 h -0.72123 v 2.24412 c 0,2.11403 -0.0239,2.24413 -0.41212,2.24413 -0.38822,0 -0.41212,-0.1301 -0.41212,-2.24413 z m 6.38787,-0.39028 c 0,-2.5043 0.0204,-2.6344 0.41211,-2.6344 0.39178,0 0.41214,0.1301 0.41214,2.6344 0,2.50431 -0.0205,2.63441 -0.41214,2.63441 -0.39176,0 -0.41211,-0.1301 -0.41211,-2.63441 z m 5.35755,-0.045 v -2.67932 l 1.90994,1.80121 c 1.05046,0.99066 1.99103,1.8012 2.09015,1.8012 0.10001,0 0.11792,-0.7822 0.0401,-1.75627 -0.13395,-1.67992 -0.12181,-1.75627 0.27954,-1.75627 0.40161,0 0.41952,0.11431 0.41952,2.67934 v 2.67934 l -1.95757,-1.84614 -1.95758,-1.84614 v 1.80121 c 0,1.6711 -0.0297,1.80121 -0.41212,1.80121 -0.39211,0 -0.41211,-0.13011 -0.41211,-2.67934 z m 8.86059,2.58817 c 0,-0.19203 2.08835,-4.89169 2.23567,-5.0312 0.13349,-0.12641 2.30468,4.57199 2.29953,4.97601 -8.2e-4,0.0805 -0.18014,0.14634 -0.39801,0.14634 -0.27003,0 -0.47192,-0.21746 -0.63417,-0.68301 -0.22903,-0.6572 -0.27623,-0.68299 -1.24957,-0.68299 -0.96129,0 -1.02653,0.0339 -1.31289,0.68299 -0.16574,0.37566 -0.44518,0.68301 -0.62096,0.68301 -0.17577,0 -0.3196,-0.041 -0.3196,-0.0912 z m 2.88485,-1.99275 c 0,-0.29921 -0.5055,-1.42862 -0.63942,-1.42862 -0.14112,0 -0.59694,1.06531 -0.59694,1.39511 0,0.0913 0.27817,0.16602 0.61817,0.16602 0.34,0 0.61819,-0.0596 0.61819,-0.13247 z M 34.823182,179.35359 c -0.570287,-1.05863 -0.529307,-1.16255 0.198159,-0.50252 0.632456,0.57382 0.771686,0.9604 0.420022,1.16623 -0.108987,0.0637 -0.38717,-0.23488 -0.618181,-0.66371 z m -0.05179,-0.9507 c -0.76181,-0.77127 -1.144973,-1.46844 -2.177053,-3.96114 -1.207234,-2.91575 -3.136617,-8.48072 -3.136617,-9.047 0,-0.24634 0.759255,-0.63017 0.920399,-0.46532 0.03581,0.0366 0.270538,0.76911 0.521629,1.62775 0.905159,3.09523 2.704873,7.6437 4.613444,11.65967 0.29329,0.61715 0.454385,1.12207 0.35799,1.12207 -0.0964,0 -0.591301,-0.42121 -1.099792,-0.93603 z m 31.777146,-8.74691 v -2.65786 l 1.228651,0.0842 c 1.572027,0.10767 2.068315,0.49675 2.068315,1.62144 0,0.55898 -0.125388,0.92511 -0.396351,1.15734 -0.389389,0.33372 -0.385761,0.35672 0.206057,1.30726 0.713109,1.14536 0.71314,1.14553 0.207973,1.14553 -0.251446,0 -0.624293,-0.35376 -1.028402,-0.97573 -0.488672,-0.75209 -0.75244,-0.9757 -1.151004,-0.9757 -0.483095,0 -0.517052,0.064 -0.517052,0.9757 0,0.73722 -0.07554,0.97573 -0.309094,0.97573 -0.259609,0 -0.309093,-0.42543 -0.309093,-2.65787 z m 2.394996,-0.57103 c 0.422738,-0.60651 -0.130529,-1.25937 -1.067281,-1.25937 -0.704948,0 -0.709528,0.006 -0.709528,0.88993 v 0.88991 l 0.749247,-0.0606 c 0.476585,-0.0385 0.850522,-0.20588 1.027562,-0.4599 z m 5.435298,0.59448 v -2.6344 h 1.751513 c 1.61413,0 1.751496,0.0305 1.751496,0.39027 0,0.35026 -0.137382,0.39028 -1.339381,0.39028 h -1.339398 v 0.683 0.68299 h 1.23636 c 1.098995,0 1.236361,0.0434 1.236361,0.3903 0,0.3469 -0.137381,0.39027 -1.236361,0.39027 h -1.23636 v 0.78057 0.78056 h 1.442418 c 1.305052,0 1.442434,0.0371 1.442434,0.3903 0,0.36135 -0.137382,0.39027 -1.854548,0.39027 h -1.854534 z m 8.190883,2.4076 c -0.31166,-0.10783 -0.56666,-0.27131 -0.56666,-0.36336 0,-0.32042 0.369,-0.37947 1.02269,-0.16367 0.48593,0.16043 0.79206,0.15932 1.17108,-0.005 0.81765,-0.35281 0.56773,-1.00092 -0.61984,-1.60741 -0.55099,-0.28139 -1.08275,-0.63265 -1.18169,-0.78056 -0.32978,-0.49309 -0.19182,-1.15948 0.34536,-1.6682 0.46985,-0.44496 0.64228,-0.48901 1.48561,-0.37954 1.06728,0.13851 1.33796,0.30066 1.10299,0.6607 -0.1218,0.18671 -0.31152,0.19449 -0.80105,0.0329 -0.70881,-0.234 -1.49485,0.0166 -1.49485,0.47639 0,0.29992 0.65344,0.90152 0.9792,0.90152 0.12399,0 0.51084,0.22734 0.85953,0.5052 0.94173,0.75043 0.84807,1.81587 -0.20499,2.33158 -0.66311,0.32473 -1.2784,0.34195 -2.09738,0.0587 z m 8.08786,-2.01731 v -2.24414 h -0.7212 c -0.58385,0 -0.72121,-0.0743 -0.72121,-0.39028 0,-0.36138 0.13738,-0.39027 1.85453,-0.39027 1.71717,0 1.85455,0.0289 1.85455,0.39027 0,0.31596 -0.13738,0.39028 -0.72123,0.39028 h -0.72121 v 2.24414 c 0,2.11402 -0.0238,2.24412 -0.41211,2.24412 -0.38822,0 -0.41212,-0.13011 -0.41212,-2.24412 z m 5.97575,2.11012 c 0,-0.24175 2.16104,-5.13279 2.26665,-5.13008 0.10716,0.003 2.266655,4.88837 2.266655,5.12794 0,0.075 -0.17825,0.13614 -0.39613,0.13614 -0.27003,0 -0.47193,-0.21743 -0.63418,-0.68298 -0.229565,-0.65881 -0.274315,-0.68299 -1.262845,-0.68299 -0.97645,0 -1.03905,0.0323 -1.32617,0.68299 -0.16573,0.37564 -0.43919,0.68298 -0.60766,0.68298 -0.16849,0 -0.30632,-0.0603 -0.30632,-0.13393 z m 2.88484,-1.92125 c 0,-0.22514 -0.62843,-1.51238 -0.70227,-1.43847 -0.0433,0.0434 -0.22277,0.40804 -0.39889,0.81052 l -0.32023,0.73178 h 0.71069 c 0.39088,0 0.7107,-0.0468 0.7107,-0.10385 z m 6.903005,1.87986 c -1.00711,-0.41257 -1.22292,-0.91799 -1.30666,-3.06012 -0.0768,-1.96333 -0.0644,-2.0333 0.35602,-2.0333 0.41271,0 0.43549,0.0969 0.43549,1.85384 0,2.04934 0.29745,2.6344 1.33939,2.6344 1.04193,0 1.33938,-0.58506 1.33938,-2.6344 0,-1.51777 0.056,-1.85384 0.3091,-1.85384 0.25501,0 0.30909,0.35654 0.30909,2.03809 0,1.83377 -0.0464,2.08877 -0.46364,2.54343 -0.50223,0.54738 -1.62586,0.7955 -2.31817,0.5119 z m 7.31512,-2.45902 v -2.6344 l 0.9788,0.003 c 0.53833,0.002 1.20779,0.1127 1.4877,0.24676 1.07307,0.5142 1.31433,1.80111 0.48489,2.58659 -0.25041,0.23714 -0.28939,0.4147 -0.14237,0.64786 0.11154,0.17664 0.4135,0.65048 0.67117,1.05295 l 0.46849,0.73179 -0.48045,-2e-4 c -0.36189,-1.5e-4 -0.62318,-0.24092 -1.05899,-0.97572 -0.44762,-0.75473 -0.69245,-0.9755 -1.08182,-0.9755 -0.46654,0 -0.50325,0.0713 -0.50325,0.97571 0,0.84562 -0.055,0.97571 -0.41213,0.97571 -0.39175,0 -0.41212,-0.13011 -0.41212,-2.63441 z m 2.43151,-0.33174 c 0.13598,-0.12877 0.24727,-0.41858 0.24727,-0.64397 0,-0.58536 -0.39158,-0.87814 -1.17453,-0.87814 -0.66855,0 -0.68,0.0148 -0.68,0.87814 0,0.86335 0.0109,0.87815 0.68,0.87815 0.37399,0 0.79126,-0.10533 0.92726,-0.23418 z m 6.13072,0.40484 c 0.61743,-1.40873 1.1226,-2.61178 1.1226,-2.67344 0,-0.48729 0.74427,1.0518 2.41345,4.99083 0.063,0.14862 -0.0652,0.24392 -0.32803,0.24392 -0.29827,0 -0.5244,-0.2108 -0.73275,-0.683 -0.28565,-0.64746 -0.35333,-0.683 -1.30075,-0.683 -0.95515,0 -1.01098,0.0302 -1.26023,0.683 -0.17233,0.45135 -0.39239,0.683 -0.64884,0.683 -0.34272,0 -0.2569,-0.29921 0.73455,-2.56131 z m 1.70195,-0.0244 c -0.3477,-0.98679 -0.52538,-1.03671 -0.87435,-0.24578 -0.17775,0.40288 -0.32317,0.76569 -0.32317,0.80624 0,0.0406 0.31972,0.0738 0.71048,0.0738 0.71006,0 0.71035,-3.9e-4 0.48704,-0.6342 z m 6.01457,-0.0937 v -2.67933 l 1.95757,1.84612 1.95759,1.84614 v -1.80121 c 0,-1.67111 0.0297,-1.80119 0.41211,-1.80119 0.3919,0 0.41212,0.1301 0.41212,2.65167 v 2.65168 l -1.90606,-1.66618 -1.90605,-1.66617 -0.0595,1.64889 c -0.0537,1.48873 -0.0988,1.64891 -0.46364,1.64891 -0.38181,0 -0.4041,-0.14781 -0.4041,-2.67933 z m 10.30302,0.43522 v -2.24414 h -0.72121 c -0.58384,0 -0.72121,-0.0743 -0.72121,-0.39027 0,-0.35967 0.13738,-0.39028 1.75149,-0.39028 1.61415,0 1.75151,0.0305 1.75151,0.39028 0,0.31594 -0.13737,0.39027 -0.7212,0.39027 h -0.72122 v 2.24414 c 0,1.86468 -0.0522,2.24411 -0.30909,2.24411 -0.25681,0 -0.30907,-0.37943 -0.30907,-2.24411 z M 23.481976,147.62851 v -6.34208 h -1.95757 -1.957571 v -1.46357 -1.46357 h 5.460593 5.460592 v 1.46357 1.46357 h -1.957571 -1.957572 v 6.34208 6.34209 h -1.545449 -1.545452 z m 28.230232,-1.46356 v -7.80566 h 1.545455 1.545454 v 7.80566 7.80565 h -1.545454 -1.545455 z m 25.551458,0 v -7.80566 h 5.563619 5.56363 v 1.46357 1.46357 h -4.01818 -4.01818 v 1.65869 1.65869 h 3.50303 3.50302 v 1.46356 1.46357 h -3.50302 -3.50303 v 1.75627 1.75627 h 4.12122 4.1212 v 1.46357 1.46355 h -5.66666 -5.666649 z m 32.763554,0 v -7.80566 h 2.87469 c 3.96441,0 5.5314,0.34951 6.88052,1.53462 1.08083,0.94946 1.46787,1.908 1.46841,3.63664 6.3e-4,1.85941 -0.50286,3.09751 -1.67181,4.11149 l -0.75485,0.65478 1.85359,2.78811 1.85359,2.78811 -1.65,0.0572 c -0.90752,0.0315 -1.7505,0.02 -1.8733,-0.0252 -0.12275,-0.0453 -0.9651,-1.18837 -1.87178,-2.54013 l -1.64847,-2.45778 -1.18485,-0.004 -1.18483,-0.005 v 2.53682 2.53684 h -1.54547 -1.54544 z m 6.68345,-0.38542 c 1.16318,-0.4188 1.67965,-2.12331 1.03387,-3.41209 -0.42972,-0.8576 -1.04721,-1.08101 -2.98765,-1.08101 h -1.63876 v 2.34169 2.3417 h 1.53202 c 0.84263,0 1.76984,-0.0857 2.06052,-0.19029 z m 26.69828,0.36289 v -7.82817 l 3.4515,0.094 c 3.80112,0.10355 4.78518,0.31785 6.07182,1.3222 2.2254,1.73719 2.30494,5.53726 0.15998,7.64468 l -0.95579,0.93907 1.81806,2.73038 c 0.99991,1.50171 1.81804,2.77441 1.81804,2.8282 0,0.0538 -0.81137,0.095 -1.80303,0.0916 l -1.80303,-0.006 -1.67286,-2.48194 -1.67284,-2.48191 -1.16049,-0.0586 -1.16047,-0.0586 v 2.54657 2.54656 h -1.54543 -1.54546 z m 6.78242,-0.45673 c 0.61248,-0.29994 1.25391,-1.34584 1.25391,-2.04455 0,-0.66183 -0.53248,-1.69033 -1.05438,-2.03651 -0.34971,-0.23197 -0.94198,-0.3182 -2.18538,-0.3182 h -1.70568 v 2.34169 2.3417 h 1.5557 c 0.95888,0 1.77825,-0.10901 2.13583,-0.28413 z m 24.92758,7.46371 c 0.20987,-0.46063 1.84198,-4.0427 3.62691,-7.96015 1.78492,-3.91748 3.31246,-7.19232 3.39453,-7.27742 0.12881,-0.1335 7.42602,15.51327 7.42602,15.92282 0,0.0832 -0.80025,0.12583 -1.77835,0.0947 l -1.77836,-0.0563 -0.62308,-1.51234 -0.62308,-1.51235 -2.80158,5.9e-4 -2.80158,5.8e-4 -0.62566,1.51168 -0.62569,1.5117 -1.58582,0.0569 -1.58585,0.0569 0.38159,-0.8375 z m 8.47172,-4.9165 c 0,-0.25113 -1.43251,-3.53151 -1.54217,-3.53151 -0.0729,0 -0.49169,0.81227 -0.93062,1.80506 l -0.79807,1.80506 h 1.63542 c 0.8995,0 1.63544,-0.0354 1.63544,-0.0786 z m -90.299475,-2.46843 c -1.0841,-0.5421 -1.26441,-0.97268 -1.13402,-2.70781 0.35162,-4.67872 6.85651,-19.38177 14.769265,-33.38313 3.25864,-5.76602 3.50068,-6.22863 3.31557,-6.337 -0.10405,-0.0609 -1.14007,0.96687 -2.30241,2.28382 -1.16232,1.31697 -2.8175,3.18479 -3.67814,4.15074 -4.07571,4.57445 -4.977985,5.59133 -6.493115,7.31781 -2.33076,2.65587 -7.35684,7.36957 -8.22374,7.71258 -1.67916,0.66443 -3.00824,0.19105 -3.00824,-1.07147 0,-1.30826 0.94166,-3.58719 6.66979,-16.14174 0.74364,-1.62986 1.41405,-3.19724 1.4898,-3.48307 0.23216,-0.87598 -0.50355,-0.51945 -1.62726,0.78859 -2.43556,2.83505 -8.13595,9.84615 -10.5499,12.97567 -6.372488,8.26149 -12.070026,15.22116 -14.005073,17.10752 -0.570852,0.55648 -1.292918,1.07171 -1.604582,1.14493 -0.776349,0.1824 -1.54061,-0.0302 -1.807773,-0.50301 -0.241447,-0.42723 0.0031,-0.98611 3.149148,-7.21181 0.840788,-1.66358 1.767758,-3.50768 2.059937,-4.09797 0.292179,-0.5903 1.419817,-2.81788 2.505852,-4.9502 1.08605,-2.13229 1.97464,-3.89908 1.97464,-3.92618 0,-0.0271 0.613314,-1.26816 1.362934,-2.7579 2.317411,-4.60549 2.761177,-5.55452 3.806437,-8.14068 1.10717,-2.73934 1.30472,-4.03227 0.61611,-4.03227 -0.58882,0 -2.71848,1.73037 -5.785481,4.70079 -2.712703,2.62727 -3.750202,4.50557 -3.789905,6.86126 -0.02181,1.29557 -0.03131,1.31716 -0.578392,1.31721 -0.393766,4e-5 -0.71719,-0.19984 -1.107577,-0.68454 -0.462924,-0.57478 -0.550883,-0.88005 -0.548235,-1.90264 0.0031,-1.38283 0.404217,-2.49521 1.438353,-3.99365 1.879876,-2.72393 5.669845,-6.12002 8.367144,-7.497612 1.097143,-0.56034 1.466603,-0.64763 2.754763,-0.6509 1.27759,-0.003 1.55403,0.0591 1.95757,0.44172 0.39362,0.3732 0.46417,0.63231 0.43462,1.596572 -0.058,1.889 -1.26209,4.77123 -6.067616,14.52279 -2.480058,5.03263 -4.509215,9.33324 -4.509215,9.5569 0,0.40445 0.0016,0.40455 0.391819,0.0219 0.215497,-0.21168 1.946588,-2.49239 3.846869,-5.06826 4.422313,-5.99456 6.417623,-8.50807 10.344653,-13.03134 4.53054,-5.21842 6.23487,-6.56415 8.32744,-6.57525 2.0764,-0.0118 2.66948,0.64452 2.23739,2.47299 -0.2168,0.91747 -2.12686,5.1694 -4.62862,10.30365 -0.95398,1.95782 -3.17398,6.84246 -3.31709,7.29854 -0.12181,0.38827 -0.0871,0.44681 0.20269,0.3415 0.19235,-0.0699 0.38075,-0.12715 0.41868,-0.12715 0.0649,0 2.81337,-3.04563 7.74831,-8.58622 3.561635,-3.99876 6.009375,-6.95718 11.624765,-14.050172 2.93145,-3.70281 5.79908,-7.20567 6.3725,-7.78412 1.59767,-1.61166 2.63679,-1.86564 4.31281,-1.05418 0.54922,0.26593 0.58389,0.34956 0.48598,1.17232 -0.12149,1.02067 -2.67803,5.94184 -10.67324,20.545302 -7.51525,13.72678 -10.19598,19.02938 -13.188445,26.08743 -1.52123,3.58801 -2.45808,6.3787 -2.45808,7.32222 0,0.32025 0.1986,0.84638 0.44132,1.1692 0.36371,0.48372 0.39089,0.61719 0.15452,0.75892 -0.48199,0.28904 -1.68749,0.18155 -2.49556,-0.22253 z m 16.876915,-12.17615 c -2.13488,-0.72107 -2.45284,-2.21392 -1.26232,-5.92703 0.67218,-2.09643 2.53824,-5.86456 3.18832,-6.43811 0.51704,-0.45617 1.41788,-0.55401 2.06785,-0.22459 0.52743,0.2673 0.51426,0.38821 -0.29902,2.74906 -1.87892,5.45431 -2.03273,6.01961 -1.93654,7.11803 0.12508,1.42748 0.3053,1.56747 1.51574,1.17689 2.97893,-0.96124 7.54925,-4.57134 10.7832,-8.51768 0.6613,-0.80697 1.3536,-1.58608 1.53846,-1.73138 0.29872,-0.23477 0.3361,-0.1955 0.3361,0.35293 0,1.74832 -3.32066,5.86345 -6.95726,8.62178 -3.49907,2.65401 -6.59027,3.62537 -8.97453,2.8201 z m 67.98782,-3.77564 c -0.0506,-0.0775 -0.24673,-0.71076 -0.43596,-1.4074 -0.9365,-3.44738 -2.96741,-8.75541 -4.33118,-11.31999 -0.39562,-0.74396 -0.71931,-1.41769 -0.71931,-1.49721 0,-0.0796 0.51216,0.33443 1.13812,0.91987 1.04239,0.97489 1.23986,1.31079 2.34803,3.99372 1.0381,2.51338 2.11647,5.64755 2.86367,8.32303 0.18043,0.646 0.15452,0.72927 -0.28655,0.91956 -0.26671,0.11505 -0.52627,0.14588 -0.57682,0.0685 z m -65.20797,-13.37057 c -0.97047,-0.97829 -0.16307,-2.41297 1.61282,-2.86583 0.77438,-0.19746 2.07367,-0.13585 2.5092,0.1192 0.23399,0.13688 -0.86261,2.28451 -1.40895,2.75926 -0.70803,0.61524 -2.09664,0.60879 -2.71307,-0.0133 z m 60.45325,-0.51389 c -0.77596,-0.75252 -0.88948,-1.37617 -0.25051,-1.37617 0.25492,0 1.27391,1.91549 1.10438,2.07603 -0.0367,0.0348 -0.42105,-0.28008 -0.85387,-0.69986 z m -1.41897,-1.62009 c -0.15654,-0.2415 -0.72307,-1.22938 -1.25896,-2.19534 -2.25741,-4.069 -7.00987,-10.24392 -10.68933,-13.888762 l -1.84518,-1.82782 0.38886,-0.43522 0.38886,-0.43521 -0.46565,0.37347 -0.46567,0.37348 -1.59494,-1.45223 c -4.32945,-3.9421 -9.37668,-7.44374 -15.09188,-10.47037 -1.41666,-0.75022 -2.57575,-1.47482 -2.57575,-1.61017 0,-0.13542 0.14144,-0.3306 0.31431,-0.43387 0.5862,-0.35017 7.22141,3.41461 12.06465,6.84543 3.96672,2.80987 9.32,7.68308 12.83694,11.685712 2.61189,2.97256 6.22078,8.07406 8.27404,11.69605 0.76971,1.35779 0.86206,1.63703 0.62929,1.90262 -0.3687,0.42071 -0.5726,0.39208 -0.90959,-0.12773 z M 136.10117,81.832518 c -2.22932,-1.08303 -6.79748,-2.70773 -10.36406,-3.68604 -3.50129,-0.96042 -9.36632,-2.13859 -11.69172,-2.34866 -1.8643,-0.16841 -2.10108,-0.285689 -1.54276,-0.764183 0.52981,-0.454059 1.02259,-0.433644 4.90572,0.203238 5.36796,0.880415 10.09278,2.122385 15.07556,3.962785 2.6816,0.99045 3.10973,1.21534 4.22424,2.21889 0.68211,0.61421 1.14748,1.11549 1.03416,1.11394 -0.1134,-0.002 -0.85186,-0.31653 -1.64114,-0.69997 z m 1.22511,-0.0829 c -0.45119,-0.44582 -0.72718,-0.77765 -0.61332,-0.7374 1.73326,0.61267 2.17441,0.84706 2.11784,1.12521 -0.11651,0.57292 -0.67892,0.42796 -1.50452,-0.38781 z m -52.120025,-4.71341 c 0.0771,-0.24148 0.20794,-0.50881 0.29088,-0.59406 0.25681,-0.26393 5.70899,-1.264034 9.28164,-1.702547 4.23055,-0.519267 11.250095,-0.710873 14.924335,-0.407378 1.46507,0.121017 2.71175,0.265455 2.77036,0.320976 0.0586,0.05552 -0.0754,0.273296 -0.29783,0.483947 -0.38606,0.365595 -0.53537,0.373294 -3.28552,0.169371 -2.51795,-0.186706 -8.56095,-0.105808 -11.741665,0.157193 -2.37995,0.196788 -7.60592,1.046558 -10.02823,1.630638 -2.01042,0.48477 -2.08643,0.48246 -1.91397,-0.0581 z"
       id="path179" /></g></svg>
